<svg width="516" height="145" viewBox="0 0 516 145" fill="none" xmlns="http://www.w3.org/2000/svg">
<path d="M117.83 1.63574V141.409H104.49C102.428 141.409 100.688 141.087 99.2707 140.442C97.9174 139.733 96.5964 138.573 95.3076 136.962L22.3287 43.7803C22.7153 48.0335 22.9086 51.9644 22.9086 55.5731V141.409H0V1.63574H13.6292C14.7247 1.63574 15.6591 1.70018 16.4323 1.82906C17.2701 1.89351 17.9789 2.08683 18.5589 2.40904C19.2033 2.66681 19.8155 3.08568 20.3954 3.66564C20.9754 4.18118 21.6198 4.89003 22.3287 5.7922L95.5976 99.3609C95.4043 97.1055 95.2432 94.8822 95.1143 92.6912C94.9854 90.5002 94.921 88.4703 94.921 86.6015V1.63574H117.83Z" fill="url(#paint0_linear_553_4122)"/>
<path d="M193.942 92.6139C193.942 90.1394 193.581 87.8195 192.859 85.6543C192.189 83.4375 191.158 81.5042 189.766 79.8545C188.374 78.2048 186.596 76.916 184.43 75.9881C182.317 75.0086 179.842 74.5188 177.007 74.5188C171.491 74.5188 167.135 76.0912 163.938 79.2359C160.794 82.3806 158.783 86.84 157.907 92.6139H193.942ZM157.52 104.136C157.829 108.209 158.551 111.74 159.685 114.73C160.819 117.669 162.314 120.117 164.17 122.076C166.026 123.984 168.217 125.427 170.743 126.407C173.321 127.335 176.156 127.799 179.249 127.799C182.343 127.799 184.997 127.438 187.214 126.716C189.483 125.994 191.442 125.195 193.091 124.319C194.792 123.443 196.262 122.644 197.499 121.922C198.788 121.2 200.025 120.839 201.211 120.839C202.809 120.839 203.995 121.432 204.768 122.618L210.258 129.577C208.145 132.052 205.773 134.14 203.144 135.841C200.515 137.491 197.757 138.831 194.87 139.862C192.034 140.842 189.122 141.538 186.132 141.95C183.193 142.363 180.332 142.569 177.548 142.569C172.032 142.569 166.903 141.667 162.16 139.862C157.417 138.006 153.293 135.3 149.787 131.743C146.282 128.134 143.524 123.7 141.513 118.442C139.502 113.132 138.497 106.997 138.497 100.038C138.497 94.6245 139.374 89.5465 141.126 84.8036C142.879 80.0092 145.379 75.8592 148.627 72.3536C151.927 68.7964 155.922 65.9868 160.613 63.9247C165.356 61.8625 170.692 60.8315 176.62 60.8315C181.621 60.8315 186.235 61.6306 190.462 63.2287C194.689 64.8268 198.324 67.1725 201.365 70.2657C204.407 73.3073 206.778 77.0707 208.48 81.5558C210.232 85.9893 211.109 91.0673 211.109 96.7897C211.109 99.6767 210.799 101.636 210.181 102.667C209.562 103.646 208.377 104.136 206.624 104.136H157.52Z" fill="#DCDCDC"/>
<path d="M295.067 141.409H276.663C275.271 141.409 274.137 141.048 273.261 140.326C272.436 139.604 271.74 138.78 271.173 137.852L254.392 110.245C254.135 111.121 253.825 111.946 253.464 112.72C253.155 113.493 252.794 114.215 252.382 114.885L237.535 137.852C236.968 138.728 236.272 139.553 235.447 140.326C234.622 141.048 233.591 141.409 232.354 141.409H215.264L242.484 100.502L216.347 62.0688H234.751C236.143 62.0688 237.174 62.275 237.844 62.6874C238.514 63.0483 239.107 63.6669 239.623 64.5433L256.248 90.99C256.815 89.2372 257.614 87.5102 258.645 85.8089L272.023 64.9299C273.157 63.0225 274.627 62.0688 276.431 62.0688H293.985L267.925 99.6509L295.067 141.409Z" fill="#DCDCDC"/>
<path d="M331.483 142.646C324.575 142.646 319.265 140.713 315.553 136.846C311.893 132.928 310.063 127.541 310.063 120.685V76.3747H301.943C300.912 76.3747 300.036 76.0396 299.314 75.3694C298.593 74.6992 298.232 73.694 298.232 72.3536V64.7753L310.991 62.6874L315.012 41.0351C315.27 40.0041 315.759 39.205 316.481 38.6379C317.203 38.0708 318.131 37.7873 319.265 37.7873H329.163V62.7647H350.351V76.3747H329.163V119.37C329.163 121.844 329.756 123.778 330.942 125.17C332.179 126.562 333.854 127.258 335.968 127.258C337.154 127.258 338.133 127.129 338.907 126.871C339.731 126.562 340.427 126.252 340.994 125.943C341.613 125.634 342.154 125.35 342.618 125.092C343.082 124.783 343.546 124.628 344.01 124.628C344.577 124.628 345.041 124.783 345.402 125.092C345.763 125.35 346.15 125.762 346.562 126.33L352.284 135.609C349.501 137.929 346.304 139.682 342.696 140.868C339.087 142.053 335.349 142.646 331.483 142.646Z" fill="#DCDCDC"/>
<path d="M510.132 142.027H484.226C482.422 142.027 480.972 141.576 479.876 140.674C478.845 139.772 478.008 138.741 477.363 137.581L444.981 83.9332C444.466 85.5442 443.854 86.9297 443.145 88.0897L412.116 137.581C411.343 138.676 410.441 139.707 409.41 140.674C408.443 141.576 407.154 142.027 405.543 142.027H381.281L427.679 70.1106L383.118 2.25391H409.023C410.828 2.25391 412.116 2.51167 412.89 3.0272C413.727 3.47829 414.501 4.25159 415.21 5.34709L447.011 56.5779C447.656 54.9669 448.429 53.3558 449.331 51.7448L478.523 5.8304C479.232 4.60601 480.005 3.70384 480.843 3.12387C481.681 2.54389 482.744 2.25391 484.033 2.25391H508.875L463.927 69.0473L510.132 142.027Z" fill="url(#paint1_linear_553_4122)"/>
<defs>
<linearGradient id="paint0_linear_553_4122" x1="176.142" y1="1.63574" x2="176.142" y2="142.646" gradientUnits="userSpaceOnUse">
<stop stop-color="#D2B0EF"/>
<stop offset="0.495" stop-color="#6F00CC" stop-opacity="0.5"/>
<stop offset="1" stop-color="#D2B0EF"/>
</linearGradient>
<linearGradient id="paint1_linear_553_4122" x1="445.706" y1="6.69998" x2="445.706" y2="142.027" gradientUnits="userSpaceOnUse">
<stop stop-color="#D2B0EF"/>
<stop offset="0.465" stop-color="#6F00CC" stop-opacity="0.5"/>
<stop offset="0.965" stop-color="#D2B0EF"/>
</linearGradient>
</defs>
</svg>
